# xmcd
#
# Track frame offsets:
#	180
#	16290
#	28573
#	46020
#	58233
#	71623
#	85020
#	104293
#	122655
#	137363
#	161575
#
# Disc length: 2426 seconds
#
# Revision: 3
# Processed by: cddbd v1.5.2PL0 Copyright (c) Steve Scherf et al.
# Submitted via: EZCDAudioConverter 3.0.3.2
#
DISCID=8409780b
DTITLE=Миша Шуфутинский - Атаман
DYEAR=1983
DGENRE=Chanson
TTITLE0=Заходите К Нам На Огонек
TTITLE1=От Звонка До Звонка
TTITLE2=Карамболь
TTITLE3=Встреча
TTITLE4=Червончики
TTITLE5=Петербургский Дождь
TTITLE6=Гоп-Стоп
TTITLE7=Вера-Надежда
TTITLE8=Ах, Эти Ночи
TTITLE9=Сингарелла
TTITLE10=Снегири
EXTD=
EXTT0=
EXTT1=
EXTT2=
EXTT3=
EXTT4=
EXTT5=
EXTT6=
EXTT7=
EXTT8=
EXTT9=
EXTT10=
PLAYORDER=
